massMuscle_states
version=1
nRows=15
nColumns=15
inDegrees=yes

# SIMM Motion File Header:
name massMuscle_states
datacolumns 15
datarows 15
otherdata 1
range 0.90337861 0.90384095
endheader
time	massToGround_xRotation	massToGround_yRotation	massToGround_zRotation	massToGround_xTranslation	massToGround_yTranslation	massToGround_zTranslation	massToGround_xRotation_u	massToGround_yRotation_u	massToGround_zRotation_u	massToGround_xTranslation_u	massToGround_yTranslation_u	massToGround_zTranslation_u	muscle.activation	muscle.fiber_length
      0.90337861	      0.00000000	      0.00000000	      0.00000000	     -0.09539840	     -4.00270170	     -0.09539840	      0.00000000	      0.00000000	      0.00000000	     -0.47085446	     -7.94131049	     -0.47085446	      0.15798730	      1.97024545
      0.90341163	      0.00000000	      0.00000000	      0.00000000	     -0.09541396	     -4.00296395	     -0.09541396	      0.00000000	      0.00000000	      0.00000000	     -0.47103691	     -7.94102869	     -0.47103691	      0.15795742	      1.97029170
      0.90344466	      0.00000000	      0.00000000	      0.00000000	     -0.09542952	     -4.00322619	     -0.09542952	      0.00000000	      0.00000000	      0.00000000	     -0.47121942	     -7.94074664	     -0.47121942	      0.15792755	      1.97033794
      0.90347768	      0.00000000	      0.00000000	      0.00000000	     -0.09544508	     -4.00348842	     -0.09544508	      0.00000000	      0.00000000	      0.00000000	     -0.47140198	     -7.94046434	     -0.47140198	      0.15789768	      1.97038416
      0.90351070	      0.00000000	      0.00000000	      0.00000000	     -0.09546065	     -4.00375064	     -0.09546065	      0.00000000	      0.00000000	      0.00000000	     -0.47158460	     -7.94018180	     -0.47158460	      0.15786781	      1.97043037
      0.90354373	      0.00000000	      0.00000000	      0.00000000	     -0.09547623	     -4.00401285	     -0.09547623	      0.00000000	      0.00000000	      0.00000000	     -0.47176727	     -7.93989901	     -0.47176727	      0.15783795	      1.97047656
      0.90357675	      0.00000000	      0.00000000	      0.00000000	     -0.09549181	     -4.00427506	     -0.09549181	      0.00000000	      0.00000000	      0.00000000	     -0.47195000	     -7.93961597	     -0.47195000	      0.15780808	      1.97052273
      0.90360978	      0.00000000	      0.00000000	      0.00000000	     -0.09550740	     -4.00453725	     -0.09550740	      0.00000000	      0.00000000	      0.00000000	     -0.47213279	     -7.93933269	     -0.47213279	      0.15777821	      1.97056889
      0.90364280	      0.00000000	      0.00000000	      0.00000000	     -0.09552299	     -4.00479943	     -0.09552299	      0.00000000	      0.00000000	      0.00000000	     -0.47231562	     -7.93904916	     -0.47231562	      0.15774834	      1.97061503
      0.90367582	      0.00000000	      0.00000000	      0.00000000	     -0.09553859	     -4.00506161	     -0.09553859	      0.00000000	      0.00000000	      0.00000000	     -0.47249852	     -7.93876539	     -0.47249852	      0.15771847	      1.97066115
      0.90370885	      0.00000000	      0.00000000	      0.00000000	     -0.09555420	     -4.00532378	     -0.09555420	      0.00000000	      0.00000000	      0.00000000	     -0.47268147	     -7.93848137	     -0.47268147	      0.15768860	      1.97070726
      0.90374187	      0.00000000	      0.00000000	      0.00000000	     -0.09556981	     -4.00558593	     -0.09556981	      0.00000000	      0.00000000	      0.00000000	     -0.47286447	     -7.93819711	     -0.47286447	      0.15765874	      1.97075335
      0.90377490	      0.00000000	      0.00000000	      0.00000000	     -0.09558543	     -4.00584808	     -0.09558543	      0.00000000	      0.00000000	      0.00000000	     -0.47304753	     -7.93791260	     -0.47304753	      0.15762887	      1.97079943
      0.90380792	      0.00000000	      0.00000000	      0.00000000	     -0.09560106	     -4.00611022	     -0.09560106	      0.00000000	      0.00000000	      0.00000000	     -0.47323064	     -7.93762784	     -0.47323064	      0.15759900	      1.97084549
      0.90384095	      0.00000000	      0.00000000	      0.00000000	     -0.09561669	     -4.00637234	     -0.09561669	      0.00000000	      0.00000000	      0.00000000	     -0.47341381	     -7.93734284	     -0.47341381	      0.15756913	      1.97089153
